PathFileType	4	(X/Y/Z)	Kaydara																																																																																																																									
DataRate	CameraRate	NumFrames	NumMarkers	Units	OrigDataRate	OrigDataStartFrame	OrigNumFrames																																																																																																																					
30	30	8	41	mm	30	35	154																																																																																																																					
Frame#	Time	PAIB_LFHD			PAIB_RFHD			PAIB_LBHD			PAIB_RBHD			PAIB_LFTShould			PAIB_RFTShould			PAIB_LRRShould			PAIB_RRRShould			PAIB_T10			PAIB_STRN			PAIB_TRUN			PAIB_LSHO			PAIB_LUPA			PAIB_LELB			PAIB_LFRM			PAIB_LWRA			PAIB_LWRB			PAIB_LFIN			PAIB_RSHO			PAIB_RUPA			PAIB_RELB			PAIB_RFRM			PAIB_RWRA			PAIB_RWRB			PAIB_RFIN			PAIB_LFWT			PAIB_RFWT			PAIB_LBWT			PAIB_RBWT			PAIB_LTHI			PAIB_LKNE			PAIB_LSHN			PAIB_LANK			PAIB_LHEE			PAIB_LTOE			PAIB_RTHI			PAIB_RKNE			PAIB_RSHN			PAIB_RANK			PAIB_RHEE			PAIB_RTOE		
		X1	Y1	Z1	X2	Y2	Z2	X3	Y3	Z3	X4	Y4	Z4	X5	Y5	Z5	X6	Y6	Z6	X7	Y7	Z7	X8	Y8	Z8	X9	Y9	Z9	X10	Y10	Z10	X11	Y11	Z11	X12	Y12	Z12	X13	Y13	Z13	X14	Y14	Z14	X15	Y15	Z15	X16	Y16	Z16	X17	Y17	Z17	X18	Y18	Z18	X19	Y19	Z19	X20	Y20	Z20	X21	Y21	Z21	X22	Y22	Z22	X23	Y23	Z23	X24	Y24	Z24	X25	Y25	Z25	X26	Y26	Z26	X27	Y27	Z27	X28	Y28	Z28	X29	Y29	Z29	X30	Y30	Z30	X31	Y31	Z31	X32	Y32	Z32	X33	Y33	Z33	X34	Y34	Z34	X35	Y35	Z35	X36	Y36	Z36	X37	Y37	Z37	X38	Y38	Z38	X39	Y39	Z39	X40	Y40	Z40	X41	Y41	Z41
																																																																																																																												
20	1.123	259.66307	1700.86624	-1952.4852	75.4078	1701.64185	-1966.94107	277.10751	1659.74976	-2075.14481	74.29682	1673.40912	-2079.56619	234.82574	1433.69492	-1950.00488	111.33461	1431.22223	-1952.44019	245.44035	1488.10226	-2097.4588	91.37875	1489.27917	-2090.90485	166.34613	1324.97787	-2166.08444	180.99392	1368.94958	-1908.26584	180.07191	1269.36806	-1879.87915	366.57372	1438.05176	-2030.30075	419.65549	1209.47975	-2035.40939	430.66978	1124.51859	-2074.81613	453.80318	1013.22266	-2025.68817	407.74479	910.18738	-1921.96472	435.71854	883.36159	-1989.82498	456.59595	854.33815	-1926.54358	-17.81093	1430.72754	-2009.21951	-81.17233	1255.53085	-2049.71939	-102.92992	1138.47206	-2054.00421	-124.69596	1004.68338	-2016.38931	-75.16716	906.39015	-1908.70544	-138.61118	890.09605	-1961.53473	-136.70474	859.4165	-1892.70569	281.4106	966.11908	-1916.89926	45.67161	969.10965	-1916.23062	221.57909	1028.66852	-2129.66003	76.49899	1032.2477	-2126.29578	268.46621	752.10716	-2140.30411	298.5084	496.64349	-2061.80573	277.60611	312.52048	-2061.53824	278.82502	129.14157	-2152.22626	225.3484	120.85588	-2201.34308	257.95444	74.36297	-1978.08807	17.09735	732.59315	-2134.15466	8.20868	487.38647	-2067.0903	63.67367	302.55543	-2061.47629	30.17128	106.44894	-2154.17526	91.90603	113.88583	-2205.48279	49.01735	76.98953	-1981.5036
21	1.157	260.4018	1700.85464	-1951.93039	75.7754	1701.48727	-1966.28387	277.52295	1659.93561	-2074.60083	74.71759	1673.44971	-2078.99841	235.30069	1433.63556	-1949.5993	111.80743	1431.14853	-1952.10968	245.99623	1488.19046	-2097.04758	91.90282	1489.39972	-2090.45212	166.80019	1325.13748	-2165.87372	181.47583	1368.96072	-1908.01773	180.48046	1269.27948	-1879.65775	367.09896	1438.08014	-2029.87442	420.05215	1209.4062	-2034.92752	431.08204	1124.56413	-2074.56512	454.21696	1013.19069	-2025.59036	408.16563	910.04974	-1922.04391	436.1784	883.31581	-1989.93301	457.13165	854.2514	-1926.83151	-17.30835	1430.79437	-2008.81851	-80.60353	1255.59723	-2049.4696	-102.30036	1138.59062	-2054.00528	-124.0692	1004.69673	-2016.50482	-74.51427	906.26923	-1908.85651	-137.95245	890.06508	-1961.8158	-136.03381	859.26949	-1892.98737	281.69132	966.10062	-1916.80511	45.9059	969.07265	-1916.33148	221.93634	1028.64563	-2129.63226	76.91092	1032.30545	-2126.30142	268.69974	752.11716	-2140.22491	298.76268	496.623	-2061.78879	277.71271	312.42329	-2061.53839	278.80598	128.99078	-2152.33185	225.41113	120.90408	-2201.44623	257.94525	74.355	-1978.08533	17.47537	732.60834	-2134.2392	8.35677	487.41512	-2067.32208	63.80046	302.62215	-2061.47934	30.14923	106.39982	-2154.13376	91.95837	113.86203	-2205.49789	49.03653	77.02297	-1981.51337
22	1.19	260.77164	1700.85388	-1951.30936	76.16811	1701.36948	-1965.63934	277.91962	1659.93317	-2073.95966	75.10201	1673.40057	-2078.40897	235.75384	1433.55316	-1949.14551	112.21716	1431.06537	-1951.68259	246.48443	1488.23578	-2096.54465	92.36655	1489.45343	-2089.96185	167.35851	1325.24536	-2165.53253	181.91008	1368.76434	-1907.63092	180.80051	1269.09775	-1879.35638	367.57072	1437.95715	-2029.37225	420.8477	1209.80057	-2035.34607	431.54564	1124.49791	-2074.27567	454.64996	1013.08533	-2025.41351	408.51181	909.80774	-1922.09137	436.6539	883.21007	-1989.90509	457.42085	853.9753	-1926.68777	-16.90112	1430.71472	-2008.47717	-80.14482	1255.53207	-2049.32007	-101.76557	1138.45963	-2053.88885	-123.45068	1004.57504	-2016.52344	-73.66785	906.09795	-1909.05121	-137.19902	889.92172	-1961.91864	-135.15279	859.03931	-1893.13797	281.91843	965.98053	-1916.80206	46.20464	969.08623	-1916.36108	222.35264	1028.60435	-2129.71603	77.26229	1032.32285	-2126.3855	269.03255	752.01172	-2140.2063	298.79379	496.4991	-2061.60675	277.71261	312.28596	-2061.40778	278.84052	128.92754	-2152.31537	225.45874	120.90611	-2201.47125	257.86423	74.35184	-1978.06503	17.92399	732.58926	-2134.28757	8.65404	487.41177	-2067.31598	63.90575	302.60365	-2061.48712	30.37509	106.41602	-2154.04587	92.07603	113.85424	-2205.4863	49.0212	77.02734	-1981.49231
23	1.223	261.15612	1700.91064	-1950.74051	76.5177	1701.42838	-1965.15594	278.35457	1659.94415	-2073.32565	75.49424	1673.40759	-2077.94128	236.0137	1433.41492	-1948.63297	112.59919	1431.0553	-1951.17035	246.95782	1488.26416	-2095.95367	92.80155	1489.46136	-2089.50974	167.84315	1325.36224	-2165.19608	182.16274	1368.65601	-1907.12433	181.08904	1268.9814	-1879.03122	368.01479	1438.0159	-2028.85056	421.27781	1209.6492	-2034.79477	432.04525	1124.49493	-2073.974	455.14198	1012.91107	-2025.1152	408.80215	909.54781	-1922.01584	437.02183	883.06015	-1989.81903	457.83554	853.87154	-1926.73615	-16.51804	1430.63141	-2008.20175	-79.67774	1255.4422	-2049.23553	-101.1702	1138.29514	-2053.71078	-122.80056	1004.40002	-2016.54984	-72.88706	905.82146	-1909.19312	-136.42106	889.70146	-1961.97357	-134.35593	858.82042	-1893.26431	282.25958	965.92903	-1916.88202	46.70493	969.16183	-1916.58386	222.83689	1028.59093	-2129.83017	77.71836	1032.30125	-2126.56616	269.43407	751.96953	-2140.22247	299.08529	496.55949	-2061.72577	277.85391	312.32246	-2061.46759	278.90854	128.91407	-2152.18765	225.50657	120.87798	-2201.48148	257.87804	74.35246	-1978.08899	18.26123	732.55669	-2134.41132	8.84906	487.46464	-2067.2963	64.06073	302.62177	-2061.49551	30.20375	106.58651	-2154.28482	92.10914	113.8447	-2205.45197	49.05592	77.00039	-1981.48315
24	1.257	261.34502	1700.94971	-1949.96368	76.78846	1701.48422	-1964.73389	278.57519	1659.96002	-2072.49329	75.96742	1673.41721	-2077.46887	236.44464	1433.48907	-1948.24585	112.89366	1430.95154	-1950.6044	247.36828	1488.38043	-2095.31891	93.19087	1489.57916	-2088.95599	168.37873	1325.5722	-2164.74213	182.4542	1368.61633	-1906.73523	181.32599	1268.84888	-1878.66135	368.29304	1438.03619	-2027.92725	421.33278	1209.21471	-2033.64716	432.39784	1124.61639	-2073.50311	455.59616	1013.04878	-2024.84329	409.03316	909.49295	-1921.85486	437.356	883.11432	-1989.71344	458.06583	853.75847	-1926.53107	-16.15513	1430.59982	-2007.83112	-79.11854	1255.41779	-2049.04221	-100.54585	1138.29391	-2053.69751	-122.08079	1004.29634	-2016.57043	-72.11436	905.70045	-1909.25247	-135.64493	889.57787	-1962.09366	-133.63268	858.6348	-1893.3168	282.605	965.81375	-1916.6951	47.01545	969.21059	-1916.7662	223.36477	1028.71414	-2129.77386	78.29004	1032.40028	-2126.66275	269.92105	752.06955	-2140.36026	299.31595	496.51463	-2061.84097	278.02011	312.31325	-2061.49323	279.04165	128.82857	-2152.22061	225.64051	120.85722	-2201.56311	257.92593	74.34378	-1978.12744	18.71871	732.52647	-2134.51813	9.02108	487.42722	-2067.30316	64.10364	302.59634	-2061.42349	30.36914	106.50414	-2154.17358	92.12671	113.84572	-2205.43915	49.01668	77.0298	-1981.49399
25	1.29	261.48388	1701.02692	-1949.29428	77.01859	1701.45523	-1964.17496	278.86499	1659.96658	-2071.70212	76.29859	1673.40973	-2076.96075	236.63744	1433.28217	-1947.34985	113.21277	1430.69794	-1950.01572	247.76171	1488.48541	-2094.52057	93.63176	1489.59244	-2088.26736	168.9032	1325.79102	-2164.29413	182.71294	1368.41293	-1906.1795	181.65188	1268.55919	-1878.39737	368.49201	1437.95639	-2026.92734	421.98086	1209.84726	-2033.79272	432.7544	1124.69154	-2072.99835	455.79308	1013.02933	-2024.42169	409.17152	909.4735	-1921.66977	437.59624	883.08289	-1989.50806	458.30788	853.7014	-1926.33499	-15.76858	1430.46875	-2007.27524	-78.65067	1255.30174	-2048.69461	-100.07004	1138.28529	-2053.69553	-121.4565	1004.14932	-2016.53992	-71.47982	905.56953	-1909.2511	-134.93151	889.3924	-1962.20001	-132.98903	858.36899	-1893.45306	282.87893	965.73273	-1916.64337	47.24761	969.19693	-1916.94733	223.83411	1028.82004	-2129.68338	78.73019	1032.52975	-2126.68549	270.31784	752.00211	-2140.41962	299.65107	496.44833	-2061.81549	278.20423	312.17972	-2061.49445	279.24723	128.74704	-2152.19025	225.80503	120.80538	-2201.61255	257.95965	74.36388	-1978.20419	19.22587	732.53067	-2134.59076	9.28997	487.46391	-2067.22076	64.23222	302.64963	-2061.34155	30.5145	106.51428	-2154.01642	92.2247	113.88998	-2205.4158	49.03864	77.02853	-1981.50391
26	1.323	261.61631	1701.21964	-1948.5556	77.15483	1701.40396	-1963.67065	279.13729	1660.00916	-2070.88745	76.51128	1673.21121	-2076.37985	237.02126	1433.14499	-1946.67648	113.5334	1430.48889	-1949.46136	248.16938	1488.58322	-2093.68256	94.03492	1489.56604	-2087.54913	169.43657	1325.91202	-2163.69141	182.68555	1368.21259	-1905.75119	181.85818	1268.24463	-1878.0806	369.23813	1438.31604	-2026.67938	422.33097	1209.68147	-2032.93655	433.1781	1124.77081	-2072.43881	456.22101	1013.13606	-2024.04175	409.35226	909.42101	-1921.28845	437.83772	883.05077	-1989.16519	458.38596	853.57285	-1926.02631	-15.38895	1430.22156	-2006.71707	-78.24813	1255.12848	-2048.33527	-99.63547	1138.05061	-2053.44238	-120.96415	1003.88565	-2016.42853	-71.1028	905.32532	-1909.27628	-134.39293	889.02527	-1962.17484	-132.34953	857.9702	-1893.48206	283.18914	965.65681	-1916.68228	47.57958	969.14177	-1916.8869	224.2498	1028.85887	-2129.57092	79.13099	1032.62497	-2126.65649	270.63097	751.93817	-2140.35965	299.92134	496.40396	-2061.80252	278.41824	312.12652	-2061.49155	279.36384	128.69349	-2152.09595	225.99024	120.72862	-2201.69754	257.96535	74.33506	-1978.20297	19.55405	732.61971	-2134.72534	9.46398	487.53914	-2067.38693	64.34154	302.66779	-2061.40976	30.50716	106.49109	-2154.09149	92.23305	113.87483	-2205.41473	49.04862	77.02255	-1981.51169
27	1.357	261.79106	1701.19125	-1947.73422	77.33376	1701.25061	-1962.99088	279.3882	1659.89487	-2070.01587	76.74009	1672.94556	-2075.68344	237.23738	1432.88681	-1946.09421	113.75051	1430.21439	-1948.92288	248.52221	1488.51929	-2092.86774	94.38276	1489.55872	-2086.99661	169.95401	1325.96283	-2163.20786	183.1337	1367.86301	-1905.15579	182.15265	1267.94907	-1877.70248	369.3309	1437.93579	-2025.47073	422.75623	1209.81216	-2032.51572	433.60317	1124.70665	-2071.81702	456.55788	1013.09074	-2023.47122	409.49135	909.2675	-1920.85663	438.1078	882.96806	-1988.68088	458.50368	853.43773	-1925.5162	-15.09237	1430.04135	-2006.32431	-77.79558	1254.91547	-2048.05267	-99.07949	1137.84462	-2053.25241	-120.39464	1003.65143	-2016.38779	-70.51723	904.9205	-1909.30542	-133.84658	888.69461	-1962.25845	-131.85303	857.56546	-1893.60428	283.42306	965.24094	-1916.90475	47.86387	969.09081	-1916.78604	224.67384	1028.87474	-2129.4104	79.46575	1032.67876	-2126.49506	271.02694	751.76414	-2140.16144	300.48433	496.15726	-2061.67709	278.80272	311.84212	-2061.38718	279.70999	128.6407	-2151.97617	226.31218	120.54804	-2201.71143	258.00095	74.36482	-1978.29422	19.68168	732.75642	-2134.93073	9.47063	487.69115	-2067.64023	64.48562	302.74101	-2061.41861	30.3341	106.70779	-2154.36157	92.21407	113.88305	-2205.42297	49.04016	77.04511	-1981.52893
